<?xml version="1.0" standalone="no"?>
<!DOCTYPE svg PUBLIC "-//W3C//DTD SVG 20010904//EN"
 "http://www.w3.org/TR/2001/REC-SVG-20010904/DTD/svg10.dtd">
<svg version="1.0" xmlns="http://www.w3.org/2000/svg"
 width="640.000000pt" height="1280.000000pt" viewBox="0 0 640.000000 1280.000000"
 preserveAspectRatio="xMidYMid meet">
<metadata>
Created by potrace 1.15, written by Peter Selinger 2001-2017
</metadata>
<g transform="translate(0.000000,1280.000000) scale(0.100000,-0.100000)"
fill="#000000" stroke="none">
<path d="M5183 12791 c-49 -13 -105 -45 -125 -72 -17 -23 -36 -82 -248 -779
-56 -184 -138 -452 -182 -595 -43 -143 -92 -303 -108 -355 -16 -52 -65 -212
-108 -355 -44 -143 -126 -411 -182 -595 -103 -337 -180 -591 -350 -1146 l-92
-302 -82 -1 c-44 0 -103 -3 -131 -6 -41 -5 -633 -45 -657 -45 -5 0 -8 -6 -8
-12 0 -7 -43 -152 -95 -323 -52 -170 -106 -346 -120 -390 -13 -44 -51 -170
-85 -280 -34 -110 -74 -243 -90 -295 -16 -52 -56 -185 -90 -295 -34 -110 -74
-243 -90 -295 -16 -52 -65 -212 -108 -355 -44 -143 -126 -411 -182 -595 -56
-184 -138 -452 -182 -595 -43 -143 -92 -303 -108 -355 -16 -52 -56 -185 -90
-295 -34 -110 -74 -243 -90 -295 -16 -52 -65 -212 -108 -355 -44 -143 -126
-411 -182 -595 -151 -494 -272 -892 -362 -1185 -43 -143 -92 -303 -108 -355
-16 -52 -56 -185 -90 -295 -34 -110 -75 -245 -91 -300 -17 -55 -42 -136 -55
-179 -20 -65 -22 -82 -12 -92 7 -6 54 -45 103 -86 50 -41 144 -124 210 -184
341 -310 559 -436 885 -510 125 -29 412 -24 625 10 221 35 345 53 425 61 l65
6 69 227 c78 258 85 280 194 637 44 143 126 411 182 595 56 184 138 452 182
595 43 143 92 303 108 355 16 52 65 212 108 355 44 143 126 411 182 595 56
184 137 450 180 590 43 140 124 406 180 590 56 184 138 452 182 595 43 143 92
303 108 355 16 52 56 185 90 295 34 110 74 243 90 295 16 52 56 185 90 295 34
110 74 243 90 295 16 52 65 212 108 355 192 625 213 696 208 704 -3 5 -154
117 -335 250 -323 236 -330 242 -321 269 5 15 22 72 39 127 16 55 57 190 91
300 34 110 74 243 90 295 16 52 65 212 108 355 44 143 126 411 182 595 56 184
138 452 182 595 43 143 92 303 108 355 16 52 65 212 108 355 44 143 126 411
182 595 56 184 115 378 131 430 16 52 29 109 29 128 0 106 -153 234 -350 292
-80 24 -242 35 -297 21z"/>
</g>
</svg>
